<svg width="32" height="39" viewBox="0 0 32 39" fill="none" xmlns="http://www.w3.org/2000/svg">
<mask id="mask0_2_922" style="mask-type:luminance" maskUnits="userSpaceOnUse" x="20" y="0" width="12" height="22">
<path d="M20.0323 16.2825L21.7214 21.6876L23.4104 17.1609L31.2815 11.4688L31.2308 8.78314L26.721 0L29.6448 8.44714L31.2308 8.78314L29.6448 8.44714L29.2801 10.6226L31.2815 11.4688L29.2801 10.6226L20.0323 16.2825Z" fill="white"/>
</mask>
<g mask="url(#mask0_2_922)">
<path d="M31.2815 0H20.0323V21.6876H31.2815V0Z" fill="url(#paint0_linear_2_922)"/>
</g>
<mask id="mask1_2_922" style="mask-type:luminance" maskUnits="userSpaceOnUse" x="21" y="17" width="8" height="5">
<path d="M23.4105 17.1609L21.7214 21.6876L28.6466 17.1609H23.4105Z" fill="white"/>
</mask>
<g mask="url(#mask1_2_922)">
<path d="M28.6466 17.1609H21.7214V21.6876H28.6466V17.1609Z" fill="url(#paint1_linear_2_922)"/>
</g>
<mask id="mask2_2_922" style="mask-type:luminance" maskUnits="userSpaceOnUse" x="15" y="23" width="8" height="16">
<path d="M18.7471 29.6759L17.6994 30.5874L15.6407 38.9837L22.4646 30.6059L21.8517 23.2521L19.0511 27.9868L18.7471 29.6759Z" fill="white"/>
</mask>
<g mask="url(#mask2_2_922)">
<path d="M22.4646 23.2521H15.6407V38.9837H22.4646V23.2521Z" fill="url(#paint2_linear_2_922)"/>
</g>
<mask id="mask3_2_922" style="mask-type:luminance" maskUnits="userSpaceOnUse" x="8" y="23" width="8" height="16">
<path d="M9.4297 23.2521L12.2304 27.9868L12.5344 29.6759L13.5822 30.5874L15.6407 38.9837L8.81689 30.6059L9.4297 23.2521Z" fill="white"/>
</mask>
<g mask="url(#mask3_2_922)">
<path d="M15.6407 23.2521H8.81689V38.9837H15.6407V23.2521Z" fill="url(#paint3_linear_2_922)"/>
</g>
<mask id="mask4_2_922" style="mask-type:luminance" maskUnits="userSpaceOnUse" x="8" y="23" width="8" height="16">
<path d="M15.6407 23.2521H8.81689V38.9837H15.6407V23.2521Z" fill="url(#paint4_linear_2_922)"/>
</mask>
<g mask="url(#mask4_2_922)">
<path fill-rule="evenodd" clip-rule="evenodd" d="M15.0306 36.4952L15.6407 38.9837L8.81689 30.6059L9.4297 23.2521L9.87464 29.119L15.0306 36.4952H15.0306Z" fill="#FFCE4B"/>
</g>
<mask id="mask5_2_922" style="mask-type:luminance" maskUnits="userSpaceOnUse" x="12" y="21" width="8" height="10">
<path d="M19.0512 27.9868L15.6408 21.6528L12.2305 27.9868L12.5345 29.6759L13.5823 30.5875L15.6408 30.5874L17.6994 30.5875L18.7472 29.6759L19.0512 27.9868Z" fill="white"/>
</mask>
<g mask="url(#mask5_2_922)">
<path d="M19.0512 21.6528H12.2305V30.5875H19.0512V21.6528Z" fill="url(#paint5_linear_2_922)"/>
</g>
<mask id="mask6_2_922" style="mask-type:luminance" maskUnits="userSpaceOnUse" x="15" y="16" width="7" height="12">
<path d="M21.7214 21.6876L20.0324 16.2825L15.6407 16.9918V21.6528L19.0511 27.9867L21.8517 23.252L21.7214 21.6876Z" fill="white"/>
</mask>
<g mask="url(#mask6_2_922)">
<path d="M21.8517 16.2825H15.6407V27.9867H21.8517V16.2825Z" fill="url(#paint6_linear_2_922)"/>
</g>
<mask id="mask7_2_922" style="mask-type:luminance" maskUnits="userSpaceOnUse" x="15" y="21" width="7" height="7">
<path d="M21.8517 21.6528H15.6407V27.9868H21.8517V21.6528Z" fill="url(#paint7_linear_2_922)"/>
</mask>
<g mask="url(#mask7_2_922)">
<path fill-rule="evenodd" clip-rule="evenodd" d="M15.6407 21.6528L19.0511 27.9868L21.8517 23.2521L18.8616 26.0201L15.6407 21.6528Z" fill="#003780"/>
</g>
<mask id="mask8_2_922" style="mask-type:luminance" maskUnits="userSpaceOnUse" x="9" y="16" width="7" height="12">
<path d="M9.56024 21.6876L11.2493 16.2825L15.6408 16.9918V21.6528L12.2305 27.9867L9.42981 23.252L9.56024 21.6876Z" fill="white"/>
</mask>
<g mask="url(#mask8_2_922)">
<path d="M15.6408 16.2825H9.42981V27.9867H15.6408V16.2825Z" fill="url(#paint8_linear_2_922)"/>
</g>
<mask id="mask9_2_922" style="mask-type:luminance" maskUnits="userSpaceOnUse" x="21" y="3" width="11" height="9">
<path d="M31.2815 3.63159H21.6705V11.4687H31.2815V3.63159Z" fill="url(#paint9_linear_2_922)"/>
</mask>
<g mask="url(#mask9_2_922)">
<mask id="mask10_2_922" style="mask-type:luminance" maskUnits="userSpaceOnUse" x="21" y="3" width="11" height="9">
<path d="M29.2801 10.6226L29.6449 8.44713L24.1366 7.28002L21.6705 3.63159L23.292 8.09078L29.2801 10.6226L31.2815 11.4687L31.2309 8.78313L29.6449 8.44713L29.2801 10.6226Z" fill="white"/>
</mask>
<g mask="url(#mask10_2_922)">
<path d="M31.2815 3.63159H21.6705V11.4687H31.2815V3.63159Z" fill="url(#paint10_linear_2_922)"/>
</g>
</g>
<path fill-rule="evenodd" clip-rule="evenodd" d="M28.6466 17.1609L21.7214 21.6876L26.5521 20.9613L28.6466 17.1609Z" fill="#003780"/>
<path fill-rule="evenodd" clip-rule="evenodd" d="M15.6408 32.4133L15.2258 32.0173L13.5823 30.5875L15.6408 30.5874L17.6994 30.5875L16.0558 32.0173L15.6408 32.4133Z" fill="#00478F"/>
<mask id="mask11_2_922" style="mask-type:luminance" maskUnits="userSpaceOnUse" x="0" y="0" width="12" height="22">
<path d="M11.2492 16.2825L9.56014 21.6876L7.87107 17.1609L0 11.4688L0.0505928 8.78314L4.56046 0L1.63661 8.44714L0.0505928 8.78314L1.63661 8.44714L2.00146 10.6226L0 11.4688L2.00146 10.6226L11.2492 16.2825Z" fill="white"/>
</mask>
<g mask="url(#mask11_2_922)">
<path d="M11.2492 0H0V21.6876H11.2492V0Z" fill="url(#paint11_linear_2_922)"/>
</g>
<mask id="mask12_2_922" style="mask-type:luminance" maskUnits="userSpaceOnUse" x="2" y="17" width="8" height="5">
<path d="M7.87109 17.1609L9.56016 21.6876L2.63501 17.1609H7.87109Z" fill="white"/>
</mask>
<g mask="url(#mask12_2_922)">
<path d="M9.56016 17.1609H2.63501V21.6876H9.56016V17.1609Z" fill="url(#paint12_linear_2_922)"/>
</g>
<mask id="mask13_2_922" style="mask-type:luminance" maskUnits="userSpaceOnUse" x="0" y="3" width="10" height="9">
<path d="M9.61107 3.63159H0V11.4687H9.61107V3.63159Z" fill="url(#paint13_linear_2_922)"/>
</mask>
<g mask="url(#mask13_2_922)">
<mask id="mask14_2_922" style="mask-type:luminance" maskUnits="userSpaceOnUse" x="0" y="3" width="10" height="9">
<path d="M2.00146 10.6226L1.63661 8.44713L7.14499 7.28002L9.61104 3.63159L7.98952 8.09078L2.00146 10.6226L0 11.4687L0.0505928 8.78313L1.63661 8.44713L2.00146 10.6226Z" fill="white"/>
</mask>
<g mask="url(#mask14_2_922)">
<path d="M9.61104 3.63159H0V11.4687H9.61104V3.63159Z" fill="url(#paint14_linear_2_922)"/>
</g>
</g>
<path fill-rule="evenodd" clip-rule="evenodd" d="M2.63501 17.1609L9.56016 21.6876L4.72943 20.9613L2.63501 17.1609Z" fill="#003780"/>
<mask id="mask15_2_922" style="mask-type:luminance" maskUnits="userSpaceOnUse" x="13" y="30" width="5" height="9">
<path d="M15.6408 38.9837L17.6994 30.5874L16.0558 32.0172L15.6408 32.4132L15.2258 32.0172L13.5823 30.5874L15.6408 38.9837Z" fill="white"/>
</mask>
<g mask="url(#mask15_2_922)">
<path d="M17.6994 30.5874H13.5823V38.9837H17.6994V30.5874Z" fill="url(#paint15_linear_2_922)"/>
</g>
<mask id="mask16_2_922" style="mask-type:luminance" maskUnits="userSpaceOnUse" x="9" y="16" width="13" height="8">
<path d="M21.7214 16.2825H9.56018V23.9213H21.7214V16.2825Z" fill="url(#paint16_linear_2_922)"/>
</mask>
<g mask="url(#mask16_2_922)">
<path fill-rule="evenodd" clip-rule="evenodd" d="M9.56018 21.6876L14.4194 23.9213L15.6407 21.6528L16.8622 23.9213L21.7214 21.6876L20.0324 16.2825L15.6407 16.9918L11.2492 16.2825L9.56018 21.6876Z" fill="#FFCE4B"/>
</g>
<path fill-rule="evenodd" clip-rule="evenodd" d="M17.335 24.0406L19.4378 23.9562L20.1389 22.415L16.8622 23.9213L17.6287 25.3448L17.335 24.0406Z" fill="#002223"/>
<path fill-rule="evenodd" clip-rule="evenodd" d="M13.9467 24.0406L11.8437 23.9562L11.1427 22.415L14.4195 23.9213L13.6529 25.3448L13.9467 24.0406Z" fill="#002223"/>
<mask id="mask17_2_922" style="mask-type:luminance" maskUnits="userSpaceOnUse" x="20" y="11" width="12" height="11">
<path d="M31.2815 11.0455H20.4467V21.6875H31.2815V11.0455Z" fill="url(#paint17_linear_2_922)"/>
</mask>
<g mask="url(#mask17_2_922)">
<path fill-rule="evenodd" clip-rule="evenodd" d="M30.2808 11.0455L20.4467 17.6083L21.7214 21.6875L23.4105 17.1608L31.2815 11.4687L30.2808 11.0455Z" fill="#102770"/>
</g>
<mask id="mask18_2_922" style="mask-type:luminance" maskUnits="userSpaceOnUse" x="0" y="11" width="11" height="11">
<path d="M10.8349 11.0455H0V21.6875H10.8349V11.0455Z" fill="url(#paint18_linear_2_922)"/>
</mask>
<g mask="url(#mask18_2_922)">
<path fill-rule="evenodd" clip-rule="evenodd" d="M1.00075 11.0455L10.8349 17.6083L9.56014 21.6875L7.87107 17.1608L0 11.4687L1.00075 11.0455Z" fill="#102770"/>
</g>
<mask id="mask19_2_922" style="mask-type:luminance" maskUnits="userSpaceOnUse" x="13" y="28" width="5" height="3">
<path d="M17.7339 28.7229H13.5477V30.5874H17.7339V28.7229Z" fill="url(#paint19_linear_2_922)"/>
</mask>
<g mask="url(#mask19_2_922)">
<path fill-rule="evenodd" clip-rule="evenodd" d="M15.6408 30.5874L17.7339 28.7229H13.5477L15.6408 30.5874Z" fill="#002223"/>
</g>
<mask id="mask20_2_922" style="mask-type:luminance" maskUnits="userSpaceOnUse" x="9" y="23" width="7" height="16">
<path d="M15.6408 23.2521H9.42981V38.9837H15.6408V23.2521Z" fill="url(#paint20_linear_2_922)"/>
</mask>
<g mask="url(#mask20_2_922)">
<path fill-rule="evenodd" clip-rule="evenodd" d="M9.42981 23.2521L12.0171 29.8053L15.6408 38.9837L13.5823 30.5875L12.5345 29.6759L12.2305 27.9868L9.42981 23.2521Z" fill="#002223"/>
</g>
<mask id="mask21_2_922" style="mask-type:luminance" maskUnits="userSpaceOnUse" x="15" y="23" width="7" height="16">
<path d="M21.8517 23.2521H15.6407V38.9837H21.8517V23.2521Z" fill="url(#paint21_linear_2_922)"/>
</mask>
<g mask="url(#mask21_2_922)">
<path fill-rule="evenodd" clip-rule="evenodd" d="M21.8517 23.2521L19.2644 29.8053L15.6407 38.9837L17.6994 30.5875L18.7471 29.6759L19.0511 27.9868L21.8517 23.2521Z" fill="#002223"/>
</g>
<mask id="mask22_2_922" style="mask-type:luminance" maskUnits="userSpaceOnUse" x="22" y="17" width="7" height="5">
<path d="M28.6465 17.1609H22.5609V21.1388H28.6465V17.1609Z" fill="url(#paint22_linear_2_922)"/>
</mask>
<g mask="url(#mask22_2_922)">
<path fill-rule="evenodd" clip-rule="evenodd" d="M23.4104 17.1609L26.3443 18.0477L22.5609 21.1388L28.6465 17.1609H23.4104Z" fill="#EBF855"/>
</g>
<mask id="mask23_2_922" style="mask-type:luminance" maskUnits="userSpaceOnUse" x="21" y="17" width="8" height="5">
<path d="M28.6466 17.1609H21.7214V21.6876H28.6466V17.1609Z" fill="url(#paint23_linear_2_922)"/>
</mask>
<g mask="url(#mask23_2_922)">
<path fill-rule="evenodd" clip-rule="evenodd" d="M24.1368 21.3244L28.6466 17.1609L22.5611 21.1387L21.7214 21.6876L24.1368 21.3244Z" fill="#102770"/>
</g>
<mask id="mask24_2_922" style="mask-type:luminance" maskUnits="userSpaceOnUse" x="2" y="17" width="7" height="5">
<path d="M8.72061 17.1609H2.63501V21.1388H8.72061V17.1609Z" fill="url(#paint24_linear_2_922)"/>
</mask>
<g mask="url(#mask24_2_922)">
<path fill-rule="evenodd" clip-rule="evenodd" d="M7.87109 17.1609L4.93723 18.0477L8.72063 21.1388L2.63501 17.1609H7.87109Z" fill="#EBF855"/>
</g>
<mask id="mask25_2_922" style="mask-type:luminance" maskUnits="userSpaceOnUse" x="2" y="17" width="8" height="5">
<path d="M9.56018 17.1609H2.63501V21.6876H9.56018V17.1609Z" fill="url(#paint25_linear_2_922)"/>
</mask>
<g mask="url(#mask25_2_922)">
<path fill-rule="evenodd" clip-rule="evenodd" d="M7.14479 21.3244L2.63501 17.1609L8.72042 21.1387L9.56016 21.6876L7.14479 21.3244Z" fill="#102770"/>
</g>
<mask id="mask26_2_922" style="mask-type:luminance" maskUnits="userSpaceOnUse" x="0" y="3" width="10" height="8">
<path d="M9.61107 3.63159H0.0253906V10.126H9.61107V3.63159Z" fill="url(#paint26_linear_2_922)"/>
</mask>
<g mask="url(#mask26_2_922)">
<path fill-rule="evenodd" clip-rule="evenodd" d="M1.63664 8.44713L0.050623 8.78313L0.0253906 10.126L1.41309 9.66665L7.62936 7.60922L9.61107 3.63159L7.14502 7.28002L1.63664 8.44713Z" fill="#FF8BC7"/>
</g>
<mask id="mask27_2_922" style="mask-type:luminance" maskUnits="userSpaceOnUse" x="21" y="3" width="11" height="8">
<path d="M31.2562 3.63159H21.6705V10.126H31.2562V3.63159Z" fill="url(#paint27_linear_2_922)"/>
</mask>
<g mask="url(#mask27_2_922)">
<path fill-rule="evenodd" clip-rule="evenodd" d="M29.6449 8.44713L31.2309 8.78313L31.2562 10.126L29.8684 9.66665L23.6522 7.60922L21.6705 3.63159L24.1366 7.28002L29.6449 8.44713Z" fill="#FF8BC7"/>
</g>
<mask id="mask28_2_922" style="mask-type:luminance" maskUnits="userSpaceOnUse" x="10" y="16" width="11" height="6">
<path d="M20.4467 16.2825H10.835V21.6528H20.4467V16.2825Z" fill="url(#paint28_linear_2_922)"/>
</mask>
<g mask="url(#mask28_2_922)">
<path fill-rule="evenodd" clip-rule="evenodd" d="M15.6408 21.6528L20.4467 17.6083L20.0324 16.2825L15.6408 16.9918L11.2493 16.2825L10.835 17.6083L15.6408 21.6528Z" fill="#FFCE4B"/>
</g>
<mask id="mask29_2_922" style="mask-type:luminance" maskUnits="userSpaceOnUse" x="9" y="21" width="7" height="7">
<path d="M15.6408 21.6528H9.42981V27.9868H15.6408V21.6528Z" fill="url(#paint29_linear_2_922)"/>
</mask>
<g mask="url(#mask29_2_922)">
<path fill-rule="evenodd" clip-rule="evenodd" d="M15.6408 21.6528L12.2305 27.9868L9.42981 23.2521L12.42 26.0201L15.6408 21.6528Z" fill="#003780"/>
</g>
<mask id="mask30_2_922" style="mask-type:luminance" maskUnits="userSpaceOnUse" x="12" y="21" width="8" height="9">
<path d="M19.0512 21.6528H12.2305V29.6759H19.0512V21.6528Z" fill="url(#paint30_linear_2_922)"/>
</mask>
<g mask="url(#mask30_2_922)">
<path fill-rule="evenodd" clip-rule="evenodd" d="M12.7125 28.1901L15.6408 24.085L18.5692 28.1901L18.7472 29.6759L19.0512 27.9868L17.6287 25.3449L16.8622 23.9214L15.6408 21.6528L14.4195 23.9214L13.6529 25.3449L12.2305 27.9868L12.5345 29.6759L12.7125 28.1901Z" fill="#EBF855"/>
</g>
<mask id="mask31_2_922" style="mask-type:luminance" maskUnits="userSpaceOnUse" x="15" y="23" width="8" height="16">
<path d="M22.4646 23.2521H15.6407V38.9837H22.4646V23.2521Z" fill="url(#paint31_linear_2_922)"/>
</mask>
<g mask="url(#mask31_2_922)">
<path fill-rule="evenodd" clip-rule="evenodd" d="M16.2509 36.4952L15.6407 38.9837L22.4646 30.6059L21.8517 23.2521L21.4068 29.119L16.2509 36.4952Z" fill="#FFCE4B"/>
</g>
<mask id="mask32_2_922" style="mask-type:luminance" maskUnits="userSpaceOnUse" x="13" y="30" width="3" height="3">
<path d="M15.6408 30.5874H13.5823V32.4132H15.6408V30.5874Z" fill="url(#paint32_linear_2_922)"/>
</mask>
<g mask="url(#mask32_2_922)">
<path fill-rule="evenodd" clip-rule="evenodd" d="M13.8873 31.8313L15.6408 32.4132L15.2258 32.0172L13.5823 30.5874L13.8873 31.8313Z" fill="#002223"/>
</g>
<mask id="mask33_2_922" style="mask-type:luminance" maskUnits="userSpaceOnUse" x="15" y="30" width="3" height="3">
<path d="M17.6993 30.5874H15.6407V32.4132H17.6993V30.5874Z" fill="url(#paint33_linear_2_922)"/>
</mask>
<g mask="url(#mask33_2_922)">
<path fill-rule="evenodd" clip-rule="evenodd" d="M17.3943 31.8313L15.6407 32.4132L16.0557 32.0172L17.6994 30.5874L17.3943 31.8313Z" fill="#002223"/>
</g>
<mask id="mask34_2_922" style="mask-type:luminance" maskUnits="userSpaceOnUse" x="14" y="33" width="4" height="6">
<path d="M17.0299 33.3179H14.2517V38.9837H17.0299V33.3179Z" fill="url(#paint34_linear_2_922)"/>
</mask>
<g mask="url(#mask34_2_922)">
<path fill-rule="evenodd" clip-rule="evenodd" d="M15.6408 37.4636L14.2517 33.3179L15.0307 36.4952L15.6408 38.9837L16.2509 36.4952L17.0299 33.3181L15.6408 37.4636Z" fill="#EBF855"/>
</g>
<mask id="mask35_2_922" style="mask-type:luminance" maskUnits="userSpaceOnUse" x="6" y="17" width="4" height="5">
<path d="M9.56016 17.1609H6.45483V21.6876H9.56016V17.1609Z" fill="url(#paint35_linear_2_922)"/>
</mask>
<g mask="url(#mask35_2_922)">
<path fill-rule="evenodd" clip-rule="evenodd" d="M6.69807 17.5154L9.56016 21.6876L7.87109 17.1609H6.45483L6.69807 17.5154Z" fill="#102770"/>
</g>
<mask id="mask36_2_922" style="mask-type:luminance" maskUnits="userSpaceOnUse" x="21" y="17" width="4" height="5">
<path d="M24.8268 17.1609H21.7214V21.6876H24.8268V17.1609Z" fill="url(#paint36_linear_2_922)"/>
</mask>
<g mask="url(#mask36_2_922)">
<path fill-rule="evenodd" clip-rule="evenodd" d="M24.5835 17.5154L21.7214 21.6876L23.4105 17.1609H24.8268L24.5835 17.5154Z" fill="#102770"/>
</g>
<mask id="mask37_2_922" style="mask-type:luminance" maskUnits="userSpaceOnUse" x="8" y="25" width="8" height="14">
<path d="M15.6407 25.119H8.81689V38.9836H15.6407V25.119Z" fill="url(#paint37_linear_2_922)"/>
</mask>
<g mask="url(#mask37_2_922)">
<path fill-rule="evenodd" clip-rule="evenodd" d="M12.7599 33.2466C12.7599 33.2466 13.3872 35.0135 12.5088 34.304C11.7343 33.6785 9.79816 31.0783 9.3511 30.4722C9.29118 30.3909 9.25802 30.3455 9.25802 30.3455L9.2741 25.119L8.81689 30.6059L15.6407 38.9837L14.175 35.2711L12.7599 33.2466Z" fill="#FFCE4B"/>
</g>
<mask id="mask38_2_922" style="mask-type:luminance" maskUnits="userSpaceOnUse" x="15" y="25" width="8" height="14">
<path d="M22.4646 25.119H15.6407V38.9836H22.4646V25.119Z" fill="url(#paint38_linear_2_922)"/>
</mask>
<g mask="url(#mask38_2_922)">
<path fill-rule="evenodd" clip-rule="evenodd" d="M18.5216 33.2466C18.5216 33.2466 17.8943 35.0135 18.7726 34.304C19.5471 33.6785 21.4833 31.0783 21.9303 30.4722C21.9903 30.3909 22.0234 30.3455 22.0234 30.3455L22.0073 25.119L22.4646 30.6059L15.6407 38.9837L17.1065 35.2711L18.5216 33.2466Z" fill="#FFCE4B"/>
</g>
<mask id="mask39_2_922" style="mask-type:luminance" maskUnits="userSpaceOnUse" x="2" y="12" width="10" height="6">
<path d="M11.2492 12.0153H2.45374V17.6083H11.2492V12.0153Z" fill="url(#paint39_linear_2_922)"/>
</mask>
<g mask="url(#mask39_2_922)">
<path fill-rule="evenodd" clip-rule="evenodd" d="M10.0873 15.5714C10.0873 15.5714 10.7518 16.8305 8.62361 15.6481L2.45374 12.0153L10.8349 17.6083L11.2492 16.2825L10.0873 15.5714Z" fill="#FCE2A6"/>
</g>
<mask id="mask40_2_922" style="mask-type:luminance" maskUnits="userSpaceOnUse" x="20" y="12" width="9" height="6">
<path d="M28.8278 12.0153H20.0323V17.6083H28.8278V12.0153Z" fill="url(#paint40_linear_2_922)"/>
</mask>
<g mask="url(#mask40_2_922)">
<path fill-rule="evenodd" clip-rule="evenodd" d="M21.1941 15.5714C21.1941 15.5714 20.5297 16.8305 22.6579 15.6481L28.8278 12.0153L20.4466 17.6083L20.0323 16.2825L21.1941 15.5714Z" fill="#EBF855"/>
</g>
<mask id="mask41_2_922" style="mask-type:luminance" maskUnits="userSpaceOnUse" x="20" y="17" width="4" height="5">
<path d="M23.4105 17.1609H20.4468V21.6876H23.4105V17.1609Z" fill="url(#paint41_linear_2_922)"/>
</mask>
<g mask="url(#mask41_2_922)">
<path fill-rule="evenodd" clip-rule="evenodd" d="M21.9335 18.9247L20.4468 17.6084L21.7214 21.6876L23.4105 17.1609L21.9335 18.9247Z" fill="#002223"/>
</g>
<mask id="mask42_2_922" style="mask-type:luminance" maskUnits="userSpaceOnUse" x="7" y="17" width="4" height="5">
<path d="M10.8348 17.1609H7.87109V21.6876H10.8348V17.1609Z" fill="url(#paint42_linear_2_922)"/>
</mask>
<g mask="url(#mask42_2_922)">
<path fill-rule="evenodd" clip-rule="evenodd" d="M9.34805 18.9247L10.8348 17.6084L9.56017 21.6876L7.87109 17.1609L9.34805 18.9247Z" fill="#002223"/>
</g>
<mask id="mask43_2_922" style="mask-type:luminance" maskUnits="userSpaceOnUse" x="12" y="28" width="7" height="3">
<path d="M18.747 28.7228H12.5344V30.5874H18.747V28.7228Z" fill="url(#paint43_linear_2_922)"/>
</mask>
<g mask="url(#mask43_2_922)">
<path fill-rule="evenodd" clip-rule="evenodd" d="M14.4843 30.0387L12.5344 29.6758L13.5822 30.5874L15.6407 30.5873L17.7338 28.7228L16.7972 30.0387L18.7471 29.6758L17.6993 30.5874L15.6407 30.5873L13.5477 28.7228L14.4843 30.0387Z" fill="#005B50"/>
</g>
<mask id="mask44_2_922" style="mask-type:luminance" maskUnits="userSpaceOnUse" x="13" y="30" width="5" height="2">
<path d="M17.6994 30.5874H13.5823V31.2802H17.6994V30.5874Z" fill="url(#paint44_linear_2_922)"/>
</mask>
<g mask="url(#mask44_2_922)">
<path fill-rule="evenodd" clip-rule="evenodd" d="M14.3785 31.2802H16.9032L17.6994 30.5875L15.6408 30.5874L13.5823 30.5875L14.3785 31.2802Z" fill="#003780"/>
</g>
<mask id="mask45_2_922" style="mask-type:luminance" maskUnits="userSpaceOnUse" x="9" y="17" width="6" height="7">
<path d="M14.1205 17.6083H9.56018V23.7662H14.1205V17.6083Z" fill="url(#paint45_linear_2_922)"/>
</mask>
<g mask="url(#mask45_2_922)">
<path fill-rule="evenodd" clip-rule="evenodd" d="M14.1205 23.7141L10.1936 20.9934L10.8349 17.6083L9.56018 21.6876L11.1426 22.415L14.0821 23.7662L14.1205 23.7141Z" fill="#FF8BC7"/>
</g>
<mask id="mask46_2_922" style="mask-type:luminance" maskUnits="userSpaceOnUse" x="17" y="17" width="5" height="7">
<path d="M21.7214 17.6083H17.161V23.7662H21.7214V17.6083Z" fill="url(#paint46_linear_2_922)"/>
</mask>
<g mask="url(#mask46_2_922)">
<path fill-rule="evenodd" clip-rule="evenodd" d="M17.161 23.7141L21.0879 20.9934L20.4466 17.6083L21.7214 21.6876L20.1389 22.415L17.1994 23.7662L17.161 23.7141Z" fill="#FF8BC7"/>
</g>
<mask id="mask47_2_922" style="mask-type:luminance" maskUnits="userSpaceOnUse" x="0" y="0" width="5" height="9">
<path d="M4.56053 0H0.0506592V8.78314H4.56053V0Z" fill="url(#paint47_linear_2_922)"/>
</mask>
<g mask="url(#mask47_2_922)">
<path fill-rule="evenodd" clip-rule="evenodd" d="M0.843698 8.6152L4.56053 0L0.0506592 8.78314L0.843698 8.6152Z" fill="#EBF855"/>
</g>
<mask id="mask48_2_922" style="mask-type:luminance" maskUnits="userSpaceOnUse" x="0" y="10" width="4" height="2">
<path d="M3.05854 10.6226H0V11.4687H3.05854V10.6226Z" fill="url(#paint48_linear_2_922)"/>
</mask>
<g mask="url(#mask48_2_922)">
<path fill-rule="evenodd" clip-rule="evenodd" d="M0 11.4687L1.48941 11.3717L3.05853 11.2696L2.00146 10.6225L1.00075 11.0456L0 11.4687Z" fill="#102770"/>
</g>
<mask id="mask49_2_922" style="mask-type:luminance" maskUnits="userSpaceOnUse" x="28" y="10" width="4" height="2">
<path d="M31.2815 10.6226H28.223V11.4687H31.2815V10.6226Z" fill="url(#paint49_linear_2_922)"/>
</mask>
<g mask="url(#mask49_2_922)">
<path fill-rule="evenodd" clip-rule="evenodd" d="M31.2815 11.4687L29.7921 11.3717L28.223 11.2696L29.2801 10.6225L30.2808 11.0456L31.2815 11.4687Z" fill="#007B70"/>
</g>
<mask id="mask50_2_922" style="mask-type:luminance" maskUnits="userSpaceOnUse" x="0" y="7" width="8" height="4">
<path d="M7.62938 7.60925H0.0253906V10.126H7.62938V7.60925Z" fill="url(#paint50_linear_2_922)"/>
</mask>
<g mask="url(#mask50_2_922)">
<path fill-rule="evenodd" clip-rule="evenodd" d="M1.74505 9.09356C0.910559 9.19308 0.451342 9.09677 0.843662 8.61514L0.050623 8.78314L0.0253906 10.126L1.4131 9.66668L1.81865 9.53249L7.62938 7.60925C7.2119 7.71447 3.5756 8.87524 1.74505 9.09356Z" fill="#FFCE4B"/>
</g>
<mask id="mask51_2_922" style="mask-type:luminance" maskUnits="userSpaceOnUse" x="23" y="7" width="9" height="4">
<path d="M31.2562 7.60925H23.6522V10.126H31.2562V7.60925Z" fill="url(#paint51_linear_2_922)"/>
</mask>
<g mask="url(#mask51_2_922)">
<path fill-rule="evenodd" clip-rule="evenodd" d="M29.5365 9.09356C30.371 9.19308 30.8302 9.09677 30.4379 8.61514L31.2309 8.78314L31.2562 10.126L29.8684 9.66668L29.4629 9.53249L23.6522 7.60925C24.0697 7.71447 27.706 8.87524 29.5365 9.09356Z" fill="#FFCE4B"/>
</g>
<mask id="mask52_2_922" style="mask-type:luminance" maskUnits="userSpaceOnUse" x="16" y="13" width="4" height="4">
<path d="M17.7674 13.3433L18.7579 14.5587L19.7484 15.7742L18.2005 16.0242L16.6527 16.2743L17.21 14.8087L17.7674 13.3433Z" fill="white"/>
</mask>
<g mask="url(#mask52_2_922)">
<path d="M19.7484 13.3433H16.6527V16.2743H19.7484V13.3433Z" fill="url(#paint52_linear_2_922)"/>
</g>
<mask id="mask53_2_922" style="mask-type:luminance" maskUnits="userSpaceOnUse" x="19" y="13" width="2" height="2">
<path d="M19.1337 13.3714L19.8587 13.2542L20.5838 13.1372L20.3227 13.8237L20.0616 14.5101L19.5977 13.9408L19.1337 13.3714Z" fill="white"/>
</mask>
<g mask="url(#mask53_2_922)">
<path d="M20.5838 13.1372H19.1337V14.5101H20.5838V13.1372Z" fill="url(#paint53_linear_2_922)"/>
</g>
<mask id="mask54_2_922" style="mask-type:luminance" maskUnits="userSpaceOnUse" x="17" y="11" width="3" height="3">
<path d="M17.959 11.9851L18.684 11.868L19.4091 11.7509L19.1481 12.4373L18.8869 13.1238L18.4229 12.5544L17.959 11.9851Z" fill="white"/>
</mask>
<g mask="url(#mask54_2_922)">
<path d="M19.4091 11.7509H17.959V13.1238H19.4091V11.7509Z" fill="url(#paint54_linear_2_922)"/>
</g>
<mask id="mask55_2_922" style="mask-type:luminance" maskUnits="userSpaceOnUse" x="11" y="13" width="4" height="4">
<path d="M13.5141 13.3433L12.5236 14.5587L11.5332 15.7742L13.081 16.0242L14.6289 16.2743L14.0716 14.8087L13.5141 13.3433Z" fill="white"/>
</mask>
<g mask="url(#mask55_2_922)">
<path d="M14.6289 13.3433H11.5332V16.2743H14.6289V13.3433Z" fill="url(#paint55_linear_2_922)"/>
</g>
<mask id="mask56_2_922" style="mask-type:luminance" maskUnits="userSpaceOnUse" x="10" y="13" width="3" height="2">
<path d="M12.1479 13.3714L11.4229 13.2542L10.6978 13.1372L10.9588 13.8237L11.22 14.5101L11.684 13.9408L12.1479 13.3714Z" fill="white"/>
</mask>
<g mask="url(#mask56_2_922)">
<path d="M12.1479 13.1372H10.6978V14.5101H12.1479V13.1372Z" fill="url(#paint56_linear_2_922)"/>
</g>
<mask id="mask57_2_922" style="mask-type:luminance" maskUnits="userSpaceOnUse" x="11" y="11" width="3" height="3">
<path d="M13.3226 11.9851L12.5975 11.868L11.8724 11.7509L12.1335 12.4373L12.3946 13.1238L12.8586 12.5544L13.3226 11.9851Z" fill="white"/>
</mask>
<g mask="url(#mask57_2_922)">
<path d="M13.3226 11.7509H11.8724V13.1238H13.3226V11.7509Z" fill="url(#paint57_linear_2_922)"/>
</g>
<mask id="mask58_2_922" style="mask-type:luminance" maskUnits="userSpaceOnUse" x="26" y="0" width="6" height="9">
<path d="M31.2308 0H26.7209V8.78314H31.2308V0Z" fill="url(#paint58_linear_2_922)"/>
</mask>
<g mask="url(#mask58_2_922)">
<path fill-rule="evenodd" clip-rule="evenodd" d="M30.4378 8.6152L26.7209 0L31.2308 8.78314L30.4378 8.6152Z" fill="#EBF855"/>
</g>
<defs>
<linearGradient id="paint0_linear_2_922" x1="28.4069" y1="20.9669" x2="24.0707" y2="5.00473" gradientUnits="userSpaceOnUse">
<stop stop-color="#00478F"/>
<stop offset="1" stop-color="#F116DF"/>
</linearGradient>
<linearGradient id="paint1_linear_2_922" x1="22.0957" y1="19.9711" x2="27.6963" y2="18.9794" gradientUnits="userSpaceOnUse">
<stop stop-color="#00478F"/>
<stop offset="1" stop-color="#F116DF"/>
</linearGradient>
<linearGradient id="paint2_linear_2_922" x1="18.1369" y1="27.1677" x2="20.8612" y2="38.9191" gradientUnits="userSpaceOnUse">
<stop stop-color="#00478F"/>
<stop offset="1" stop-color="#F116DF"/>
</linearGradient>
<linearGradient id="paint3_linear_2_922" x1="11.3139" y1="27.1678" x2="14.0358" y2="38.9193" gradientUnits="userSpaceOnUse">
<stop stop-color="#00478F"/>
<stop offset="1" stop-color="#F116DF"/>
</linearGradient>
<linearGradient id="paint4_linear_2_922" x1="5.80338" y1="41.4441" x2="13.6337" y2="28.8601" gradientUnits="userSpaceOnUse">
<stop stop-color="white"/>
<stop offset="1"/>
</linearGradient>
<linearGradient id="paint5_linear_2_922" x1="14.3187" y1="35.9729" x2="16.2298" y2="21.7313" gradientUnits="userSpaceOnUse">
<stop stop-color="#00478F"/>
<stop offset="1" stop-color="#F116DF"/>
</linearGradient>
<linearGradient id="paint6_linear_2_922" x1="19.4186" y1="25.7314" x2="17.7126" y2="16.6053" gradientUnits="userSpaceOnUse">
<stop stop-color="#00478F"/>
<stop offset="1" stop-color="#F116DF"/>
</linearGradient>
<linearGradient id="paint7_linear_2_922" x1="18.5115" y1="28.2047" x2="18.8663" y2="23.0891" gradientUnits="userSpaceOnUse">
<stop stop-color="white"/>
<stop offset="1"/>
</linearGradient>
<linearGradient id="paint8_linear_2_922" x1="11.8638" y1="25.732" x2="13.5674" y2="16.6059" gradientUnits="userSpaceOnUse">
<stop stop-color="#00478F"/>
<stop offset="1" stop-color="#F116DF"/>
</linearGradient>
<linearGradient id="paint9_linear_2_922" x1="21.4098" y1="4.00412" x2="32.7244" y2="11.9237" gradientUnits="userSpaceOnUse">
<stop stop-color="white"/>
<stop offset="1" stop-color="#D9D9D9"/>
</linearGradient>
<linearGradient id="paint10_linear_2_922" x1="28.1679" y1="12.0158" x2="25.4774" y2="4.91431" gradientUnits="userSpaceOnUse">
<stop stop-color="#00478F"/>
<stop offset="1" stop-color="#F116DF"/>
</linearGradient>
<linearGradient id="paint11_linear_2_922" x1="2.8731" y1="20.9667" x2="7.21173" y2="5.00455" gradientUnits="userSpaceOnUse">
<stop stop-color="#00478F"/>
<stop offset="1" stop-color="#F116DF"/>
</linearGradient>
<linearGradient id="paint12_linear_2_922" x1="9.18656" y1="19.9712" x2="3.58592" y2="18.9795" gradientUnits="userSpaceOnUse">
<stop stop-color="#00478F"/>
<stop offset="1" stop-color="#F116DF"/>
</linearGradient>
<linearGradient id="paint13_linear_2_922" x1="9.8718" y1="4.00412" x2="-1.44291" y2="11.9237" gradientUnits="userSpaceOnUse">
<stop stop-color="white"/>
<stop offset="1" stop-color="#D9D9D9"/>
</linearGradient>
<linearGradient id="paint14_linear_2_922" x1="3.1134" y1="12.0164" x2="5.80393" y2="4.91489" gradientUnits="userSpaceOnUse">
<stop stop-color="#00478F"/>
<stop offset="1" stop-color="#F116DF"/>
</linearGradient>
<linearGradient id="paint15_linear_2_922" x1="15.6609" y1="28.0103" x2="15.6368" y2="36.1495" gradientUnits="userSpaceOnUse">
<stop stop-color="#00478F"/>
<stop offset="1" stop-color="#F116DF"/>
</linearGradient>
<linearGradient id="paint16_linear_2_922" x1="15.6408" y1="14.9713" x2="15.6408" y2="24.2277" gradientUnits="userSpaceOnUse">
<stop stop-color="white"/>
<stop offset="1"/>
</linearGradient>
<linearGradient id="paint17_linear_2_922" x1="17.6654" y1="21.7408" x2="31.7864" y2="12.4844" gradientUnits="userSpaceOnUse">
<stop stop-color="white"/>
<stop offset="1"/>
</linearGradient>
<linearGradient id="paint18_linear_2_922" x1="13.6154" y1="21.7412" x2="-0.503149" y2="12.4849" gradientUnits="userSpaceOnUse">
<stop stop-color="white"/>
<stop offset="1"/>
</linearGradient>
<linearGradient id="paint19_linear_2_922" x1="15.6408" y1="30.5874" x2="15.6408" y2="25.6986" gradientUnits="userSpaceOnUse">
<stop stop-color="white"/>
<stop offset="1"/>
</linearGradient>
<linearGradient id="paint20_linear_2_922" x1="12.6468" y1="22.914" x2="12.4707" y2="35.8743" gradientUnits="userSpaceOnUse">
<stop stop-color="white"/>
<stop offset="1"/>
</linearGradient>
<linearGradient id="paint21_linear_2_922" x1="18.6347" y1="22.914" x2="18.8109" y2="35.8743" gradientUnits="userSpaceOnUse">
<stop stop-color="white"/>
<stop offset="1"/>
</linearGradient>
<linearGradient id="paint22_linear_2_922" x1="33.7632" y1="16.334" x2="23.24" y2="19.9656" gradientUnits="userSpaceOnUse">
<stop stop-color="white"/>
<stop offset="1"/>
</linearGradient>
<linearGradient id="paint23_linear_2_922" x1="21.7167" y1="21.2198" x2="33.0676" y2="15.3417" gradientUnits="userSpaceOnUse">
<stop stop-color="white"/>
<stop offset="1"/>
</linearGradient>
<linearGradient id="paint24_linear_2_922" x1="-2.48163" y1="16.334" x2="8.04161" y2="19.9656" gradientUnits="userSpaceOnUse">
<stop stop-color="white"/>
<stop offset="1"/>
</linearGradient>
<linearGradient id="paint25_linear_2_922" x1="9.56508" y1="21.2199" x2="-1.78582" y2="15.3418" gradientUnits="userSpaceOnUse">
<stop stop-color="white"/>
<stop offset="1"/>
</linearGradient>
<linearGradient id="paint26_linear_2_922" x1="9.35073" y1="3.5682" x2="-1.42588" y2="11.4395" gradientUnits="userSpaceOnUse">
<stop stop-color="white"/>
<stop offset="1"/>
</linearGradient>
<linearGradient id="paint27_linear_2_922" x1="21.9301" y1="3.56766" x2="32.7067" y2="11.439" gradientUnits="userSpaceOnUse">
<stop stop-color="white"/>
<stop offset="1"/>
</linearGradient>
<linearGradient id="paint28_linear_2_922" x1="15.6392" y1="25.3109" x2="15.6416" y2="16.1897" gradientUnits="userSpaceOnUse">
<stop stop-color="white"/>
<stop offset="1"/>
</linearGradient>
<linearGradient id="paint29_linear_2_922" x1="12.7685" y1="28.2053" x2="12.4162" y2="23.0897" gradientUnits="userSpaceOnUse">
<stop stop-color="white"/>
<stop offset="1"/>
</linearGradient>
<linearGradient id="paint30_linear_2_922" x1="15.6408" y1="16.993" x2="15.6408" y2="29.6542" gradientUnits="userSpaceOnUse">
<stop stop-color="white"/>
<stop offset="1"/>
</linearGradient>
<linearGradient id="paint31_linear_2_922" x1="25.4781" y1="41.4442" x2="17.6479" y2="28.8602" gradientUnits="userSpaceOnUse">
<stop stop-color="white"/>
<stop offset="1"/>
</linearGradient>
<linearGradient id="paint32_linear_2_922" x1="14.6115" y1="28.9674" x2="14.6115" y2="33.0213" gradientUnits="userSpaceOnUse">
<stop stop-color="white"/>
<stop offset="1"/>
</linearGradient>
<linearGradient id="paint33_linear_2_922" x1="16.67" y1="28.9674" x2="16.67" y2="33.0213" gradientUnits="userSpaceOnUse">
<stop stop-color="white"/>
<stop offset="1"/>
</linearGradient>
<linearGradient id="paint34_linear_2_922" x1="15.6408" y1="38.9837" x2="15.6408" y2="34.1601" gradientUnits="userSpaceOnUse">
<stop stop-color="white"/>
<stop offset="1"/>
</linearGradient>
<linearGradient id="paint35_linear_2_922" x1="9.15618" y1="21.4438" x2="6.57182" y2="16.9001" gradientUnits="userSpaceOnUse">
<stop stop-color="white"/>
<stop offset="1"/>
</linearGradient>
<linearGradient id="paint36_linear_2_922" x1="22.1255" y1="21.4437" x2="24.7098" y2="16.9" gradientUnits="userSpaceOnUse">
<stop stop-color="white"/>
<stop offset="1"/>
</linearGradient>
<linearGradient id="paint37_linear_2_922" x1="13.8663" y1="38.8954" x2="11.2313" y2="27.8824" gradientUnits="userSpaceOnUse">
<stop stop-color="white"/>
<stop offset="1"/>
</linearGradient>
<linearGradient id="paint38_linear_2_922" x1="17.4152" y1="38.8954" x2="20.0502" y2="27.8823" gradientUnits="userSpaceOnUse">
<stop stop-color="white"/>
<stop offset="1"/>
</linearGradient>
<linearGradient id="paint39_linear_2_922" x1="9.22576" y1="23.4936" x2="5.88131" y2="11.2643" gradientUnits="userSpaceOnUse">
<stop stop-color="white"/>
<stop offset="1"/>
</linearGradient>
<linearGradient id="paint40_linear_2_922" x1="22.0558" y1="23.4935" x2="25.4002" y2="11.2643" gradientUnits="userSpaceOnUse">
<stop stop-color="white"/>
<stop offset="1"/>
</linearGradient>
<linearGradient id="paint41_linear_2_922" x1="17.5511" y1="26.5793" x2="24.2063" y2="15.7014" gradientUnits="userSpaceOnUse">
<stop stop-color="white"/>
<stop offset="1"/>
</linearGradient>
<linearGradient id="paint42_linear_2_922" x1="13.7303" y1="26.5791" x2="7.07518" y2="15.7012" gradientUnits="userSpaceOnUse">
<stop stop-color="white"/>
<stop offset="1"/>
</linearGradient>
<linearGradient id="paint43_linear_2_922" x1="15.6407" y1="33.8739" x2="15.6407" y2="28.2323" gradientUnits="userSpaceOnUse">
<stop stop-color="white"/>
<stop offset="1"/>
</linearGradient>
<linearGradient id="paint44_linear_2_922" x1="15.6408" y1="29.8782" x2="15.6408" y2="31.7531" gradientUnits="userSpaceOnUse">
<stop stop-color="white"/>
<stop offset="1"/>
</linearGradient>
<linearGradient id="paint45_linear_2_922" x1="11.8386" y1="26.499" x2="11.841" y2="18.4251" gradientUnits="userSpaceOnUse">
<stop stop-color="white"/>
<stop offset="1"/>
</linearGradient>
<linearGradient id="paint46_linear_2_922" x1="19.4412" y1="26.5002" x2="19.4412" y2="18.4262" gradientUnits="userSpaceOnUse">
<stop stop-color="white"/>
<stop offset="1"/>
</linearGradient>
<linearGradient id="paint47_linear_2_922" x1="4.29323" y1="-1.79621" x2="-0.0574762" y2="11.7481" gradientUnits="userSpaceOnUse">
<stop stop-color="white"/>
<stop offset="1"/>
</linearGradient>
<linearGradient id="paint48_linear_2_922" x1="-3.14416" y1="12.2694" x2="6.46694" y2="9.75266" gradientUnits="userSpaceOnUse">
<stop stop-color="white"/>
<stop offset="1"/>
</linearGradient>
<linearGradient id="paint49_linear_2_922" x1="34.4245" y1="12.2691" x2="24.8135" y2="9.75237" gradientUnits="userSpaceOnUse">
<stop stop-color="white"/>
<stop offset="1"/>
</linearGradient>
<linearGradient id="paint50_linear_2_922" x1="8.63359" y1="4.14775" x2="-2.64974" y2="15.2284" gradientUnits="userSpaceOnUse">
<stop stop-color="white"/>
<stop offset="1"/>
</linearGradient>
<linearGradient id="paint51_linear_2_922" x1="22.6477" y1="4.14748" x2="33.9311" y2="15.2281" gradientUnits="userSpaceOnUse">
<stop stop-color="white"/>
<stop offset="1"/>
</linearGradient>
<linearGradient id="paint52_linear_2_922" x1="18.0695" y1="18.7159" x2="18.2336" y2="13.8223" gradientUnits="userSpaceOnUse">
<stop stop-color="#00478F"/>
<stop offset="1" stop-color="#F116DF"/>
</linearGradient>
<linearGradient id="paint53_linear_2_922" x1="21.2643" y1="14.6997" x2="19.317" y2="13.486" gradientUnits="userSpaceOnUse">
<stop stop-color="#00478F"/>
<stop offset="1" stop-color="#F116DF"/>
</linearGradient>
<linearGradient id="paint54_linear_2_922" x1="20.089" y1="13.3123" x2="18.1441" y2="12.101" gradientUnits="userSpaceOnUse">
<stop stop-color="#00478F"/>
<stop offset="1" stop-color="#F116DF"/>
</linearGradient>
<linearGradient id="paint55_linear_2_922" x1="13.212" y1="18.7159" x2="13.048" y2="13.8223" gradientUnits="userSpaceOnUse">
<stop stop-color="#00478F"/>
<stop offset="1" stop-color="#F116DF"/>
</linearGradient>
<linearGradient id="paint56_linear_2_922" x1="10.0181" y1="14.7003" x2="11.963" y2="13.4866" gradientUnits="userSpaceOnUse">
<stop stop-color="#00478F"/>
<stop offset="1" stop-color="#F116DF"/>
</linearGradient>
<linearGradient id="paint57_linear_2_922" x1="11.1931" y1="13.312" x2="13.138" y2="12.1007" gradientUnits="userSpaceOnUse">
<stop stop-color="#00478F"/>
<stop offset="1" stop-color="#F116DF"/>
</linearGradient>
<linearGradient id="paint58_linear_2_922" x1="26.9883" y1="-1.79619" x2="31.339" y2="11.7482" gradientUnits="userSpaceOnUse">
<stop stop-color="white"/>
<stop offset="1"/>
</linearGradient>
</defs>
</svg>
